<svg width="189" height="256" viewBox="0 0 189 256" xmlns="http://www.w3.org/2000/svg">
  <g fill="none" fill-rule="evenodd">
    <path
      d="M60.948 197.899s-9.744 5.679 6.935 7.6c20.205 2.31 30.532 1.98 52.8-2.244 0 0 5.854 3.678 14.03 6.865-49.917 21.44-112.972-1.242-73.765-12.221m-6.1-27.978s-10.929 8.108 5.763 9.838c21.584 2.231 38.63 2.414 68.125-3.278 0 0 4.08 4.145 10.495 6.412-60.352 17.686-127.573 1.394-84.383-12.972"
      fill="#5382A1" />
    <path
      d="M106.27 122.462c12.299 14.191-3.232 26.961-3.232 26.961s31.23-16.157 16.888-36.39c-13.396-18.867-23.669-28.242 31.943-60.565 0 0-87.292 21.85-45.6 69.994"
      fill="#E76F00" />
    <path
      d="M172.288 218.593s7.211 5.954-7.941 10.56c-28.813 8.748-119.921 11.39-145.23.349-9.099-3.967 7.963-9.471 13.33-10.626 5.597-1.217 8.796-.99 8.796-.99-10.118-7.143-65.4 14.026-28.08 20.089 101.774 16.54 185.524-7.449 159.125-19.382m-106.654-77.66S19.29 151.964 49.222 155.97c12.639 1.696 37.833 1.312 61.3-.658 19.18-1.622 38.437-5.069 38.437-5.069s-6.762 2.903-11.655 6.25C90.243 168.899-.67 163.128 25.503 150.44c22.134-10.722 40.13-9.506 40.13-9.506m83.135 46.569c47.84-24.913 25.72-48.855 10.282-45.63-3.784.79-5.471 1.474-5.471 1.474s1.404-2.205 4.088-3.16c30.543-10.761 54.032 31.74-9.86 48.572 0 0 .74-.663.961-1.256"
      fill="#5382A1" />
    <path
      d="M119.926.275s26.494 26.56-25.13 67.404c-41.396 32.763-9.439 51.444-.016 72.787-24.164-21.849-41.897-41.083-30-58.984C82.24 55.205 130.615 42.465 119.926.275"
      fill="#E76F00" />
    <path
      d="M70.335 255.013c45.92 2.945 116.435-1.635 118.106-23.41 0 0-3.21 8.255-37.951 14.81-39.194 7.392-87.534 6.53-116.205 1.792.001 0 5.87 4.868 36.05 6.808"
      fill="#5382A1" />
  </g>
</svg>