<svg xmlns="http://www.w3.org/2000/svg" xml:space="preserve" width="988.301" height="415.4">
  <style>
    .logo-color {
      fill: #f1602c;
    }
  </style>

  <path class="logo-color"
    d="M878.614 105.695v174.273l-49.036-45.165-92.912 88.911V415.4h30.97v-76.2l61.942-60.651 27.163 23.292-36.132 36.132 21.873 21.873 67.103-67.102V136.665h47.746v194.92l-83.167 83.167 43.873-.127 70.264-70.2v-238.73z" />
  <path class="logo-color"
    d="M771.846 247.41h-35.225v-24.299h25.285l16.567-18.776v-50.753l29.822-29.821-29.822-29.822V43.186L761.906 24.41H736.62V.11L771.846 0l33.136 33.135v49.759l32.03 31.975v17.617l-32.03 32.031v49.758z" />
  <path class="logo-color"
    d="M666.21 147.087v49.687h-28.687V58.587h79.722l19.282 20.244.035 48.243-20.025 20.005zm47.702-33.39.056-10.891.002-9.874-9.997-10.345H666.21v40.687l37.749.022z" />
  <path class="logo-color"
    d="M619.991 58.587v24.469h-41.343v113.718h-29.063V83.056h-41.531v-24.47ZM490.71 58.587v24.469h-41.344v113.718h-29.062V83.056h-41.531v-24.47z" />
  <path class="logo-color"
    d="M334.054 196.774v-61.687h-54v61.687H251.46V58.587h28.594v52.687h54V58.587h28.687v138.187Z" />
  <path class="logo-color"
    d="M216.455 247.41h35.225v-24.299h-25.285l-16.567-18.776v-50.753l-29.822-29.821 29.822-29.822V43.186l16.567-18.776h25.285V.11L216.455 0l-33.136 33.135v49.759l-32.03 31.975v17.617l32.03 32.031v49.758z" />
  <path class="logo-color"
    d="M109.687 105.695v174.273l49.037-45.165 92.911 88.911V415.4h-30.97v-76.2l-61.941-60.651-27.164 23.292 36.132 36.132-21.873 21.873-67.102-67.102V136.665H30.97v194.92l83.167 83.167-43.873-.127L0 344.425v-238.73z" />
</svg>