<svg xmlns="http://www.w3.org/2000/svg" viewBox="0 0 228 256">
  <g fill="none" fill-rule="evenodd">
    <path
      d="M227.988 75.264c-.001-4.305-.923-8.108-2.786-11.372-1.83-3.211-4.573-5.9-8.25-8.029C186.6 38.38 156.218 20.948 125.875 3.445c-8.18-4.717-16.112-4.545-24.232.24-12.082 7.119-72.57 41.739-90.594 52.168C3.626 60.147.013 66.716.012 75.256 0 110.419.012 145.58 0 180.743c.002 4.21.884 7.94 2.666 11.156 1.83 3.306 4.61 6.07 8.372 8.247 18.026 10.43 78.521 45.047 90.6 52.167 8.124 4.788 16.055 4.959 24.238.24 30.344-17.503 60.729-34.933 91.086-52.418 3.762-2.175 6.542-4.941 8.373-8.245 1.779-3.216 2.663-6.946 2.665-11.157 0 0 0-70.305-.012-105.469"
      fill="#A9B9CB" />
    <path
      d="M125.668 3.675c-8.167-4.706-16.086-4.535-24.192.239-12.062 7.1-72.45 41.63-90.446 52.033C3.62 60.228.013 66.78.012 75.299 0 110.369.012 145.44 0 180.512c.002 4.2.883 7.92 2.661 11.126 1.829 3.299 4.604 6.056 8.36 8.226a8027 8027 0 0 0 17.954 10.329L195.604 43.889c-23.315-13.4-46.636-26.788-69.936-40.214"
      fill="#7F8B99" />
    <path
      d="m137.562 111.972 35.482.25c0-14.755-14.964-50.889-57.867-50.889-27.334 0-64.081 17.344-64.081 67.21 0 49.863 36.023 66.124 64.081 66.124 45.437 0 56.297-31.38 56.297-49.113l-33.85-1.932s.906 20.511-22.627 20.511c-21.723 0-25.348-26.558-25.348-35.59 0-13.731 4.893-35.773 25.348-35.773s22.565 19.202 22.565 19.202"
      fill="#FFF" />
  </g>
</svg>