<svg xmlns="http://www.w3.org/2000/svg" viewBox="0 0 255 96">
  <g fill="#2DBCAF">
    <path
      d="M20.035 28.97c-.495 0-.619-.248-.371-.621l2.597-3.358c.247-.373.866-.622 1.36-.622h44.151c.495 0 .618.373.371.746l-2.102 3.234c-.248.373-.866.746-1.237.746zM1.36 40.413c-.494 0-.618-.25-.37-.622l2.596-3.358c.248-.373.866-.622 1.36-.622h56.395c.495 0 .742.373.618.746l-.989 2.985c-.124.497-.618.746-1.113.746zm29.929 11.44c-.495 0-.618-.373-.371-.746l1.731-3.109c.248-.373.742-.746 1.237-.746H58.62c.495 0 .742.373.742.87l-.247 2.985c0 .498-.495.87-.866.87zm128.37-25.12c-7.79 1.99-13.108 3.482-20.776 5.472-1.855.497-1.979.622-3.586-1.244-1.855-2.114-3.216-3.482-5.813-4.725-7.791-3.856-15.335-2.736-22.384 1.865-8.41 5.472-12.739 13.555-12.615 23.628.124 9.949 6.926 18.157 16.696 19.525 8.41 1.119 15.459-1.866 21.024-8.208 1.113-1.368 2.102-2.86 3.339-4.601h-23.869c-2.597 0-3.215-1.617-2.35-3.731 1.608-3.855 4.576-10.322 6.308-13.555.37-.746 1.237-1.99 3.092-1.99h45.016c-.247 3.358-.247 6.715-.742 10.073-1.36 8.954-4.7 17.162-10.141 24.374-8.904 11.814-20.53 19.152-35.246 21.141-12.12 1.617-23.374-.746-33.268-8.207-9.152-6.964-14.346-16.167-15.706-27.608C67.03 45.387 70.988 33.2 79.15 22.505 87.93 10.938 99.556 3.6 113.778.99c11.625-2.114 22.755-.746 32.773 6.093 6.554 4.353 11.254 10.322 14.346 17.535.742 1.12.247 1.741-1.237 2.114" />
    <path
      d="M200.595 95.503c-11.254-.25-21.519-3.482-30.176-10.944-7.296-6.342-11.872-14.426-13.356-24.001C154.837 46.505 158.67 34.069 167.08 23c9.028-11.938 19.911-18.156 34.628-20.768 12.615-2.238 24.487-.995 35.247 6.343 9.77 6.715 15.83 15.793 17.437 27.732 2.103 16.788-2.72 30.468-14.222 42.157-8.162 8.332-18.18 13.556-29.681 15.918-3.34.622-6.678.746-9.894 1.12m29.434-50.241c-.124-1.617-.124-2.86-.371-4.104-2.226-12.312-13.48-19.276-25.229-16.54-11.501 2.611-18.922 9.949-21.643 21.638-2.226 9.7 2.474 19.525 11.378 23.504 6.802 2.985 13.604 2.612 20.159-.746 9.77-5.099 15.088-13.058 15.706-23.752" />
  </g>
</svg>