<svg xmlns="http://www.w3.org/2000/svg" viewBox="0 0 256 255">
  <defs>
    <linearGradient x1="59.404%" y1="-3.568%" x2="40.49%" y2="103.581%" id="a">
      <stop stop-color="#FAAE42" offset="0%" />
      <stop stop-color="#EF3E31" offset="100%" />
    </linearGradient>
    <linearGradient x1="59.84%" y1="1.974%" x2="43.622%" y2="97.794%" id="b">
      <stop stop-color="#E39F3A" offset="0%" />
      <stop stop-color="#D33929" offset="100%" />
    </linearGradient>
  </defs>
  <g fill="none" fill-rule="evenodd">
    <path
      d="M56.679 0h141.248c6.873 0 13.547 1.096 20.022 3.387 9.363 3.386 17.83 9.363 24.205 17.133 6.475 7.77 10.758 17.332 12.252 27.293.598 3.685.698 7.37.698 11.056v137.76c0 4.383-.2 8.865-1.096 13.148a56.4 56.4 0 0 1-13.448 26.596c-6.674 7.47-15.44 13.049-24.902 16.037-5.778 1.793-11.754 2.59-17.83 2.59-2.69 0-141.548 0-143.64-.1-10.16-.498-20.22-3.785-28.688-9.463-8.267-5.578-15.04-13.347-19.424-22.312-3.785-7.67-5.678-16.236-5.678-24.803V56.678C.2 48.21 1.992 39.844 5.678 32.273 9.96 23.31 16.635 15.44 24.903 9.861 33.37 4.084 43.33.697 53.49.2c.997-.2 2.093-.2 3.19-.2"
      fill="url(#a)" />
    <path
      d="M215.16 208.582c-.897-1.394-1.893-2.789-2.989-4.084-2.49-2.988-5.379-5.578-8.566-7.77-3.985-2.689-8.666-4.382-13.448-4.582-3.387-.199-6.773.399-9.96 1.594-3.188 1.096-6.276 2.69-9.265 4.283-3.486 1.793-6.972 3.586-10.658 5.08a80 80 0 0 1-13.647 4.184c-5.877 1.096-11.853 1.494-17.73 1.395-10.659-.2-21.317-1.793-31.478-4.782-8.965-2.69-17.531-6.375-25.6-11.056-7.072-4.084-13.646-8.766-19.822-14.045-5.08-4.383-9.762-9.065-14.145-14.045a154 154 0 0 1-8.566-10.957 47 47 0 0 1-2.989-4.682L0 120.727V56.479C0 25.3 25.202 0 56.38 0h50.303l37.255 37.852c84.071 57.175 56.878 120.228 56.878 120.228s23.906 26.895 14.344 50.502"
      fill="url(#b)" />
    <path
      d="M144.137 37.852c84.072 57.175 56.878 120.228 56.878 120.228s23.906 26.994 14.244 50.602c0 0-9.861-16.536-26.397-16.536-15.937 0-25.3 16.536-57.376 16.536-71.42 0-105.189-59.666-105.189-59.666 64.349 42.334 108.277 12.351 108.277 12.351-28.986-16.834-90.646-97.318-90.646-97.318 53.69 45.72 76.9 57.773 76.9 57.773-13.846-11.455-52.694-67.435-52.694-67.435 31.078 31.476 92.837 75.404 92.837 75.404 17.532-48.61-16.834-91.94-16.834-91.94"
      fill="#FFF" />
  </g>
</svg>