<svg xmlns="http://www.w3.org/2000/svg" width="275.392" height="247.411" viewBox="0 0 72.864 65.461">
  <style>
    .curly {
      fill: #f1602c;
    }

    /* @media (prefers-color-scheme: dark) {
      .curly {
        fill: #f1602c;
      }
    } */
  </style>
  <path
    d="M108.523 181.348h9.32v-6.429h-6.69l-4.383-4.968v-13.428l-7.89-7.89 7.89-7.89v-13.43l4.383-4.967h6.69v-6.43l-9.32-.028-8.767 8.767v13.165l-8.475 8.46v4.661l8.475 8.475v13.165zM146.904 181.348h-9.32v-6.429h6.69l4.383-4.968v-13.428l7.89-7.89-7.89-7.89v-13.43l-4.384-4.967h-6.69v-6.43l9.32-.029 8.768 8.768v13.165l8.474 8.46v4.661l-8.474 8.475v13.165z"
    class="curly" transform="translate(-91.281 -115.888)" />
</svg>